0
SECTION
2
HEADER
9
$INSUNITS
70
4
9
$ACADVER
1
AC1014
9
$HANDSEED
5
FFFF
0
ENDSEC
0
SECTION
2
TABLES
0
TABLE
2
VPORT
5
8
100
AcDbSymbolTable
0
ENDTAB
0
TABLE
2
LTYPE
5
5
100
AcDbSymbolTable
0
LTYPE
5
14
100
AcDbSymbolTableRecord
100
AcDbLinetypeTableRecord
2
BYBLOCK
70
0
0
LTYPE
5
15
100
AcDbSymbolTableRecord
100
AcDbLinetypeTableRecord
2
BYLAYER
70
0
0
ENDTAB
0
TABLE
2
LAYER
5
2
100
AcDbSymbolTable
70
2
0
LAYER
5
50
100
AcDbSymbolTableRecord
100
AcDbLayerTableRecord
2
0
70
0
6
CONTINUOUS
0
ENDTAB
0
TABLE
2
STYLE
5
3
100
AcDbSymbolTable
70
1
0
STYLE
5
11
100
AcDbSymbolTableRecord
100
AcDbTextStyleTableRecord
2
STANDARD
70
0
0
ENDTAB
0
TABLE
2
VIEW
5
6
100
AcDbSymbolTable
70
0
0
ENDTAB
0
TABLE
2
UCS
5
7
100
AcDbSymbolTable
70
0
0
ENDTAB
0
TABLE
2
APPID
5
9
100
AcDbSymbolTable
70
2
0
APPID
5
12
100
AcDbSymbolTableRecord
100
AcDbRegAppTableRecord
2
ACAD
70
0
0
ENDTAB
0
TABLE
2
DIMSTYLE
5
A
100
AcDbSymbolTable
70
1
0
ENDTAB
0
TABLE
2
BLOCK_RECORD
5
1
100
AcDbSymbolTable
70
1
0
BLOCK_RECORD
5
1F
100
AcDbSymbolTableRecord
100
AcDbBlockTableRecord
2
*MODEL_SPACE
0
BLOCK_RECORD
5
1B
100
AcDbSymbolTableRecord
100
AcDbBlockTableRecord
2
*PAPER_SPACE
0
ENDTAB
0
ENDSEC
0
SECTION
2
BLOCKS
0
BLOCK
5
20
100
AcDbEntity
100
AcDbBlockBegin
2
*MODEL_SPACE
0
ENDBLK
5
21
100
AcDbEntity
100
AcDbBlockEnd
0
BLOCK
5
1C
100
AcDbEntity
100
AcDbBlockBegin
2
*PAPER_SPACE
0
ENDBLK
5
1D
100
AcDbEntity
100
AcDbBlockEnd
0
ENDSEC
0
SECTION
2
ENTITIES
0
LWPOLYLINE
5
100
100
AcDbEntity
8
0
100
AcDbPolyline
90
22
70
1
43
0.0
10
24.035565644629852
20
-6.1099577856716047
42
-0.29029228726364131
10
4.7264589070524101
20
-24.345442822013844
42
-0.36966767758114438
10
3.5952076323224786
20
-23.703099362966682
42
0.34445791244139001
10
-0.39038921445853414
20
-21.198018221626825
10
-6.3550676553779599
20
-21.503443232084635
42
-0.14468707411682427
10
-6.9062062682549143
20
-21.370777070733457
10
-13.578445699351608
20
-17.518557839092132
42
0.32808472023082713
10
-15.933622847149959
20
-17.779726293076873
42
-0.39854617484006755
10
-17.309161480757073
20
-17.760431549742151
42
-0.4217711995490161
10
-17.309161480757098
20
17.76043154974214
42
-0.39854617484006555
10
-15.933622847149973
20
17.779726293076866
42
0.32808472023082469
10
-13.578445699351636
20
17.518557839092125
10
-6.9062062682549206
20
21.370777070733435
42
-0.14468707411682327
10
-6.3550676553779697
20
21.50344323208461
10
-0.39038921445852415
20
21.1980182216268
42
0.34445791244138985
10
3.595207632322488
20
23.703099362966682
42
-0.36966767758114666
10
4.7264589070524234
20
24.345442822013847
42
-0.29029228726364131
10
24.035565644629862
20
6.1099577856715932
42
-0.39854617484006194
10
23.364506065713677
20
4.9090590134135468
42
0.32808472023082269
10
21.96073897599662
20
3.0000000000000009
10
21.960738975996609
20
-2.9999999999999973
42
0.32808472023082302
10
23.36450606571367
20
-4.9090590134135494
42
-0.39854617484006777
0
LWPOLYLINE
5
101
100
AcDbEntity
8
0
100
AcDbPolyline
90
12
70
1
43
0.0
10
29.762224379235867
20
1.5000000000058431
10
25.960738975986462
20
1.4999999999999412
10
25.960738975991173
20
-1.5000000000000593
10
29.76222437923645
20
-1.4999999999941394
42
-0.54425316630841625
10
-13.582074083936122
20
-26.524842385553775
10
-11.681331382316733
20
-23.232659454221256
10
-14.279407593672303
20
-21.732659454225146
10
-16.180150295290026
20
-25.024842385554113
42
-0.54425316630841336
10
-16.180150295299754
20
25.024842385547821
10
-14.279407593669962
20
21.732659454221178
10
-11.681331382318888
20
23.232659454225196
10
-13.582074083946431
20
26.524842385548503
42
-0.54425316630841469
0
CIRCLE
5
102
100
AcDbEntity
8
0
100
AcDbCircle
10
9.4368957093138306e-15
20
24.999999999999996
30
0
40
2.25
210
0
220
-0
230
1
0
CIRCLE
5
103
100
AcDbEntity
8
0
100
AcDbCircle
10
5.134781488891349e-15
20
-25
30
0
40
2.25
210
0
220
-0
230
1
0
ENDSEC
0
SECTION
2
OBJECTS
0
DICTIONARY
5
C
100
AcDbDictionary
3
ACAD_GROUP
350
D
3
ACAD_MLINESTYLE
350
17
0
DICTIONARY
5
D
100
AcDbDictionary
0
DICTIONARY
5
1A
330
C
100
AcDbDictionary
0
DICTIONARY
5
17
100
AcDbDictionary
0
ENDSEC
0
EOF
